<svg xmlns="http://www.w3.org/2000/svg" fill="none" viewBox="15 17.66 162 28.72">
<path d="M115.835 45.9732H125.747V41.6163H120.203V33.8882H124.56V29.5313H120.203V22.5984H125.355V18.2416H115.846V45.9844L115.835 45.9732ZM104.467 32.1074V22.5984C106.326 22.5984 107.435 23.7857 107.435 27.3585C107.435 30.9314 106.326 32.1186 104.467 32.1186M107.356 45.9732H111.915L111.276 43.9908L108.465 35.3554C110.683 33.933 111.993 31.1106 111.993 27.1569C111.993 21.2096 108.98 18.2416 104.467 18.2416H100.11V45.9844H104.467V36.4754H104.545L107.356 45.9844V45.9732ZM90.1867 46.3764C94.9019 46.3764 96.1339 41.9747 96.1339 37.4163V18.2304H91.7771V28.0977L91.7323 37.8867C91.7323 40.4179 91.2955 41.8067 90.1867 41.8067C89.0779 41.8067 88.6411 40.4179 88.6411 37.8867L88.5963 28.0977V18.2304H84.2394V37.4163C84.2394 41.9747 85.4714 46.3764 90.1867 46.3764ZM73.8121 45.9732H78.169V22.5872H81.3386V18.2304H70.6425V22.5872H73.8121V45.9732ZM61.3464 45.9732H70.2617V41.8179H65.7033V18.1968H61.3464V45.9732ZM50.6391 46.3764C55.3544 46.3764 56.5864 41.9747 56.5864 37.4163V18.2304H52.2296V28.0977L52.1848 37.8867C52.1848 40.4179 51.748 41.8067 50.6391 41.8067C49.5303 41.8067 49.0935 40.4179 49.0935 37.8867L49.0487 28.0977V18.2304H44.6919V37.4163C44.6919 41.9747 45.9239 46.3764 50.6391 46.3764Z" fill="#0F0DB2"/>
<path d="M37.389 36.7776C35.8098 39.7009 32.7858 41.4481 29.1457 41.4481C23.7585 41.4481 19.7152 37.5952 19.7152 31.8159C19.7152 26.0367 23.7585 22.1838 29.1457 22.1838C34.533 22.1838 35.3394 23.6846 37.0082 26.2159L40.7154 23.5054C38.1842 19.9326 34.0178 17.6589 29.1457 17.6589C21.1265 17.6589 15 23.7854 15 31.8047C15 39.8241 21.1265 45.9506 29.1457 45.9506C37.165 45.9506 38.8898 43.2849 41.3202 39.1745L37.3778 36.7552V36.7776H37.389Z" fill="#0F0DB2"/>
<path d="M139.613 41.8179V28.1089V18.1968H135.256V28.1089V36.0722V45.9732H155.248V41.8179H139.613Z" fill="#0F0DB2"/>
<path d="M149.022 21.2321H149.1L150.679 29.9458H147.476L149.022 21.2321ZM147.039 33.0595H151.082C151.15 33.5635 151.866 38.6148 151.866 38.6148H154.902L153.849 31.6147L151.508 18.2305H146.625L144.34 31.5027C143.981 33.9219 143.444 37.6739 143.276 38.6036H146.345C146.389 38.3124 146.871 34.6163 147.039 33.0483" fill="#0F0DB2"/>
<path d="M172.329 37.8417C172.295 34.896 170.033 33.8768 167.143 33.8768H161.599V41.6161H167.143C170.1 41.6161 172.362 41.2241 172.329 37.8417ZM171.601 25.5999C171.534 23.8302 170.01 22.4638 167.132 22.4638C164.254 22.4638 162.305 22.5646 161.588 22.5646V29.9007H167.132C171.791 29.9007 171.578 26.7087 171.601 25.5887M157.825 36.0608V18.2078H167.132C174.479 18.2078 176.025 22.8782 176.025 25.4095C176.025 27.9407 174.21 30.4719 172.598 31.6592C174.39 32.712 176.999 34.952 176.999 38.4689C177.022 40.7537 176.226 45.9842 167.132 45.9842H157.825V36.0608Z" fill="#0F0DB2"/>
</svg>